<svg width="40" height="40" viewBox="0 0 40 40" fill="none" xmlns="http://www.w3.org/2000/svg">
<path d="M20 40C31.0457 40 40 31.0457 40 20C40 8.9543 31.0457 0 20 0C8.9543 0 0 8.9543 0 20C0 31.0457 8.9543 40 20 40Z" fill="white"/>
<path d="M10.2221 9.70154C10.755 9.70154 11.2197 10.0858 11.3222 10.6141L11.3905 11.1972H31.0147C31.9645 11.1972 32.7161 12.1441 32.4496 13.1046L29.9282 22.0995C29.7437 22.7444 29.1561 23.1904 28.4933 23.1904H13.7069L14.1373 25.4408H28.507C29.1288 25.4408 29.6276 25.9417 29.6276 26.566C29.6276 27.1904 29.1288 27.6912 28.507 27.6912H13.1671C12.6751 27.6912 12.2104 27.307 12.108 26.7787L9.29278 11.9588H6.86709C6.25213 11.9588 5.74649 11.4511 5.74649 10.8336C5.74649 10.2161 6.25213 9.7084 6.86709 9.7084H10.2221V9.70154ZM11.7116 31.4305C11.7116 30.1887 12.7161 29.1801 13.9528 29.1801C15.1896 29.1801 16.194 30.1887 16.194 31.4305C16.194 32.6724 15.1896 33.681 13.9528 33.681C12.7161 33.681 11.7116 32.6724 11.7116 31.4305ZM29.6276 31.4305C29.6276 32.6724 28.6231 33.681 27.3864 33.681C26.1496 33.681 25.1452 32.6724 25.1452 31.4305C25.1452 30.1887 26.1496 29.1801 27.3864 29.1801C28.6231 29.1801 29.6276 30.1887 29.6276 31.4305Z" fill="#34495E"/>
</svg>
