<svg width="43" height="42" viewBox="0 0 43 42" fill="none" xmlns="http://www.w3.org/2000/svg">
<path d="M20 42C31.0457 42 40 33.0457 40 22C40 10.9543 31.0457 2 20 2C8.9543 2 0 10.9543 0 22C0 33.0457 8.9543 42 20 42Z" fill="white"/>
<path d="M33 20C38.5228 20 43 15.5228 43 10C43 4.47715 38.5228 0 33 0C27.4772 0 23 4.47715 23 10C23 15.5228 27.4772 20 33 20Z" fill="#E84B3C"/>
<path d="M24.65 33.6365C24.7155 35.744 22.8907 38.0067 19.8495 37.9064C17.4352 37.8243 15.3203 35.744 15.5543 33.6365C18.5768 33.6365 21.5993 33.6365 24.65 33.6365Z" fill="#35495E"/>
<path d="M32.6602 30.4249C31.2659 28.4724 30.6202 26.2462 30.3301 23.9288C30.2085 23.0072 30.1523 22.0675 30.0962 21.1369C25.3237 19.8778 21.8146 15.6261 21.8146 10.5715C21.8146 9.50403 21.9737 8.47305 22.2637 7.48768C21.9456 6.46581 21.1408 5.98225 20.0834 6.0005C18.9979 6.01875 18.2025 6.5388 17.9124 7.59716C17.7159 8.31794 17.6785 9.09346 17.6223 9.85074C17.6036 10.1609 17.5474 10.3069 17.2199 10.4073C13.9915 11.4383 11.8299 13.5276 10.7257 16.6571C10.2297 18.053 10.3139 19.522 10.1642 20.9635C9.99575 22.5146 9.89282 24.0747 9.58401 25.5893C9.13484 27.7881 8.25521 29.8227 6.62697 31.4833C6.4211 31.7022 6.26202 31.9668 6 32.3044C6.36495 32.3591 6.60825 32.4321 6.85155 32.4321C9.04127 32.4504 11.231 32.4413 13.4207 32.4504C19.8682 32.4686 26.325 32.496 32.7725 32.5142C33.2029 32.5142 33.624 32.4504 34.0545 32.4139C34.0732 32.3591 34.0919 32.3044 34.12 32.2497C33.9703 32.0398 33.8206 31.8208 33.6521 31.6201C33.3246 31.2187 32.9596 30.8446 32.6602 30.4249Z" fill="#35495E"/>
</svg>
