<svg width="133" height="25" viewBox="0 0 133 25" fill="none" xmlns="http://www.w3.org/2000/svg">
<path d="M25.0482 6.79437C25.0482 6.64257 25.0812 6.49737 25.1483 6.35987C25.2154 6.22127 25.2979 6.11237 25.3958 6.03207C25.6279 5.88027 25.8688 5.80437 26.1185 5.80437H28.1392C28.3086 5.80437 28.4417 5.83517 28.5407 5.89787C28.6386 5.96057 28.7211 6.04087 28.7882 6.13877C28.8553 6.23667 28.9125 6.34887 28.962 6.47317C29.0115 6.59857 29.0709 6.72287 29.1424 6.84827C29.16 6.88457 29.1963 6.97037 29.2491 7.10897C29.303 7.24757 29.3602 7.39937 29.4229 7.56437C29.4845 7.72937 29.545 7.88557 29.6033 8.03297C29.6605 8.18037 29.699 8.27607 29.7166 8.32007C29.9839 8.02637 30.2402 7.71617 30.4855 7.39057C30.7308 7.06497 30.9915 6.76467 31.2676 6.48747C31.5437 6.21137 31.8517 5.98367 32.1905 5.80547C32.5293 5.62727 32.9308 5.53817 33.395 5.53817C33.8768 5.53817 34.3069 5.57447 34.6853 5.64487C35.0648 5.71637 35.4234 5.82087 35.7622 5.95947C36.101 6.09807 36.4376 6.27407 36.772 6.48747C37.1064 6.70197 37.4694 6.95167 37.8621 7.23657C38.477 7.56657 38.5936 8.05717 38.2097 8.70837L36.992 10.7819C36.8138 11.0503 36.5949 11.2153 36.3364 11.2769C36.0779 11.3396 35.7963 11.2989 35.4938 11.1559C35.1099 10.7819 34.7205 10.5025 34.3234 10.3199C33.9263 10.1373 33.4742 10.046 32.9649 10.046C32.6173 10.046 32.3115 10.0955 32.0486 10.1934C31.7857 10.2913 31.547 10.4299 31.3325 10.6081C31.118 10.7863 30.9178 11.0008 30.7308 11.2505C30.5427 11.5002 30.3557 11.7763 30.1687 12.0799V21.7654C30.1687 22.1053 30.0862 22.3605 29.9212 22.5343C29.7562 22.7081 29.4812 22.795 29.0984 22.795H26.0888C25.3936 22.795 25.046 22.4518 25.046 21.7654V6.79437H25.0482Z" fill="white"/>
<path d="M40.1083 1.97967C40.1083 1.83007 40.1127 1.69257 40.1215 1.56937C40.1303 1.44617 40.1677 1.33947 40.2337 1.25147C40.2997 1.16347 40.4031 1.09527 40.545 1.04577C40.6858 0.997367 40.8849 0.973167 41.1412 0.973167H44.3048C44.4731 0.973167 44.6117 1.00177 44.7217 1.05897C44.8317 1.11617 44.9208 1.18877 44.9868 1.27787C45.0528 1.36587 45.0968 1.46157 45.1188 1.56277C45.1408 1.66397 45.1518 1.75967 45.1518 1.84767V11.6432L49.917 6.34777C50.1469 6.09147 50.4197 5.96387 50.7376 5.96387H54.801C55.2872 5.96387 55.5292 6.15417 55.5292 6.53367C55.5292 6.63047 55.5138 6.71077 55.483 6.77237C55.4522 6.83397 55.3884 6.92307 55.2916 7.03747L49.8499 12.7828L56.6941 21.5729H56.6677C56.7821 21.6873 56.8635 21.805 56.9119 21.9238C56.9603 22.0426 56.9845 22.1504 56.9845 22.2483C56.9845 22.4507 56.9295 22.5904 56.8184 22.6652C56.7084 22.7411 56.5434 22.7774 56.3223 22.7774H51.8475C51.6979 22.7774 51.556 22.7202 51.424 22.6047C51.292 22.4903 51.1457 22.3187 50.9873 22.0888L46.6588 15.9596L45.1892 17.482V21.7577C45.1892 21.8281 45.1782 21.9216 45.1562 22.036C45.1342 22.1504 45.0891 22.2637 45.0231 22.3737C44.9571 22.4837 44.8658 22.5783 44.7514 22.6586C44.637 22.7378 44.4863 22.7774 44.3004 22.7774H40.9784C40.82 22.7774 40.6825 22.7356 40.5681 22.652C40.4537 22.5684 40.3624 22.4738 40.2964 22.3671C40.2304 22.2604 40.182 22.1614 40.1512 22.069C40.1204 21.9755 40.105 21.9216 40.105 21.904V1.97967H40.1083Z" fill="white"/>
<path d="M71.4968 20.826C70.7114 21.5487 69.827 22.1141 68.8447 22.52C67.8624 22.9259 66.8229 23.1294 65.7251 23.1294C64.5019 23.1294 63.3458 22.9061 62.2568 22.4595C61.1667 22.0129 60.2119 21.3947 59.3913 20.6049C58.5696 19.814 57.9184 18.8834 57.4355 17.8131C56.9537 16.7417 56.7128 15.5757 56.7128 14.3184C56.7128 13.5319 56.8085 12.7707 57.001 12.0348C57.1924 11.2978 57.4652 10.6092 57.8172 9.96567C58.1703 9.32327 58.5982 8.73147 59.1031 8.19137C59.6069 7.65127 60.1723 7.18927 60.7971 6.80537C61.4219 6.42147 62.1006 6.12227 62.8332 5.90777C63.5658 5.69327 64.338 5.58657 65.1498 5.58657C65.8901 5.58657 66.6095 5.68447 67.3069 5.88137C68.0032 6.07717 68.6566 6.35437 69.2682 6.71187C69.8798 7.06937 70.4397 7.49727 70.949 7.99667C71.4583 8.49717 71.8961 9.04387 72.2624 9.63677C72.6276 10.2308 72.9114 10.8644 73.1127 11.5387C73.3129 12.213 73.4141 12.9071 73.4141 13.621C73.4141 14.0852 73.4075 14.4647 73.3943 14.7595C73.38 15.0532 73.3118 15.2886 73.1864 15.4624C73.0621 15.6362 72.8542 15.7572 72.5638 15.8243C72.2734 15.8914 71.8466 15.9255 71.2856 15.9255H61.643C61.7321 16.4975 61.9136 16.9738 62.1864 17.3577C62.4581 17.7416 62.7727 18.0474 63.1302 18.2762C63.4877 18.5028 63.8672 18.6656 64.2687 18.7646C64.6702 18.8625 65.0497 18.912 65.4072 18.912C65.7295 18.912 66.0584 18.8779 66.3983 18.8119C66.7371 18.7448 67.0649 18.6557 67.3828 18.5435C67.6996 18.4324 67.99 18.3026 68.2529 18.1552C68.5158 18.0078 68.7281 17.8538 68.8898 17.6932C69.0317 17.5766 69.1549 17.4897 69.2572 17.4325C69.3606 17.3742 69.4695 17.3456 69.5861 17.3456C69.7016 17.3456 69.8204 17.3863 69.9403 17.4666C70.0613 17.5469 70.1977 17.6635 70.3484 17.8153L71.7685 19.4224C71.8664 19.539 71.9291 19.6435 71.9555 19.737C71.983 19.8305 71.9962 19.9273 71.9962 20.0252C71.9962 20.2034 71.9467 20.3574 71.8488 20.4872C71.7465 20.6137 71.631 20.7281 71.4968 20.826ZM65.0552 9.67087C64.7076 9.67087 64.3699 9.74017 64.0443 9.87767C63.7176 10.0163 63.4118 10.2011 63.1269 10.4343C62.8409 10.6664 62.5846 10.9304 62.3569 11.2241C62.1292 11.5189 61.9433 11.8181 61.8003 12.1217H68.6445C68.4564 11.773 68.2529 11.4518 68.0351 11.157C67.8162 10.8622 67.5665 10.6037 67.2849 10.3804C67.0044 10.1571 66.6821 9.98327 66.3213 9.85787C65.9583 9.73247 65.537 9.67087 65.0552 9.67087Z" fill="white"/>
<path d="M78.0605 17.4336C78.3014 17.6745 78.5621 17.8769 78.8426 18.0419C79.1231 18.2069 79.3926 18.34 79.6511 18.4423C79.9096 18.5446 80.1362 18.6183 80.332 18.6623C80.5289 18.7063 80.662 18.7283 80.7324 18.7283C80.9018 18.7283 81.1185 18.7217 81.3814 18.7085C81.6443 18.6953 81.8951 18.6557 82.136 18.5875C82.3758 18.5215 82.5837 18.4115 82.7575 18.2608C82.9313 18.109 83.0182 17.8956 83.0182 17.6195C83.0182 17.3698 82.9698 17.1718 82.8708 17.0244C82.7729 16.877 82.6299 16.7527 82.444 16.6504C82.257 16.5481 82.0271 16.4557 81.7554 16.3754C81.4837 16.2962 81.1779 16.2016 80.8402 16.0949C79.771 15.81 78.8888 15.4668 78.1936 15.0664C77.4984 14.666 76.9484 14.2183 76.5425 13.7233C76.1366 13.2283 75.855 12.6959 75.6944 12.1261C75.5338 11.5563 75.4546 10.9546 75.4546 10.3221C75.4546 9.58286 75.6009 8.90966 75.8957 8.30356C76.1894 7.69746 76.6085 7.17936 77.1519 6.74596C77.6953 6.31366 78.3465 5.98036 79.1033 5.74386C79.8601 5.50846 80.7016 5.38966 81.6289 5.38966C82.191 5.38966 82.7157 5.43696 83.2063 5.52936C83.6958 5.62286 84.1644 5.77026 84.6099 5.97046C85.0554 6.17066 85.4899 6.42916 85.9134 6.74596C86.3369 7.06276 86.7582 7.43896 87.1762 7.87566C87.328 8.05386 87.405 8.22106 87.4105 8.37726C87.4149 8.53346 87.3148 8.70066 87.1091 8.87886C86.7615 9.16376 86.4293 9.44426 86.1136 9.72036C85.7979 9.99646 85.4701 10.3045 85.1313 10.6422C85.0235 10.7313 84.9168 10.7874 84.8101 10.8094C84.7023 10.8314 84.6011 10.8292 84.5021 10.8028C84.4031 10.7764 84.3107 10.7313 84.2216 10.6697C84.1325 10.607 84.0522 10.5311 83.9807 10.4431C83.6683 10.0955 83.313 9.86116 82.9115 9.74126C82.5111 9.62136 82.136 9.56086 81.7884 9.56086C81.3517 9.56086 81.0041 9.63676 80.7456 9.78856C80.4871 9.94036 80.3672 10.1714 80.3848 10.4838C80.4024 10.7159 80.4893 10.8963 80.6455 11.025C80.8006 11.1548 80.9931 11.2593 81.2197 11.3396C81.4463 11.4199 81.6872 11.4848 81.9424 11.5332C82.1954 11.5827 82.4297 11.6377 82.6431 11.7004C83.4461 11.9589 84.1809 12.2394 84.8486 12.5419C85.5163 12.8455 86.096 13.2173 86.5855 13.6573C87.075 14.0984 87.4567 14.6264 87.7284 15.2413C87.999 15.8562 88.1354 16.6042 88.1354 17.4864C88.1354 18.3686 87.9594 19.1573 87.6074 19.8514C87.2565 20.5466 86.7714 21.1296 86.1576 21.6026C85.5427 22.0745 84.8134 22.4353 83.9719 22.685C83.1304 22.9347 82.2229 23.059 81.2527 23.059C80.7005 23.059 80.1384 23.0095 79.5686 22.9116C78.9988 22.8137 78.4466 22.6553 77.9109 22.4375C77.3763 22.2197 76.8692 21.9381 76.3874 21.5949C75.9067 21.2517 75.4788 20.8359 75.1048 20.3453C75.0069 20.221 74.9332 20.089 74.8837 19.9504C74.8353 19.8129 74.8122 19.6765 74.8166 19.5434C74.821 19.4103 74.8485 19.2871 74.8969 19.176C74.9464 19.0649 75.0245 18.9692 75.1312 18.8889L76.8549 17.1641C77.0683 16.9859 77.2575 16.9232 77.4225 16.9771C77.5908 17.0321 77.8031 17.1839 78.0605 17.4336Z" fill="white"/>
<path d="M91.288 3.11707C91.288 2.84097 91.3793 2.63417 91.5619 2.49557C91.7445 2.35697 92.0052 2.22607 92.3429 2.10177L95.3745 1.04687C95.4196 1.03807 95.4614 1.03367 95.5021 1.03367C95.5417 1.03367 95.5791 1.03367 95.6165 1.03367C95.9454 1.03367 96.1654 1.12937 96.2776 1.32077C96.3887 1.51217 96.4437 1.76407 96.4437 2.07537L96.4294 6.28287H98.6591C98.944 6.28287 99.1761 6.36757 99.3532 6.53587C99.5314 6.70527 99.6205 6.95827 99.6205 7.29707V9.87437C99.6205 10.2484 99.5314 10.5223 99.3532 10.695C99.1761 10.8688 98.944 10.9557 98.6591 10.9557H96.4294L96.4426 21.6928C96.4426 22.0316 96.3447 22.2868 96.1489 22.4606C95.9531 22.6344 95.6825 22.7213 95.3349 22.7213H92.3165C91.6312 22.7213 91.288 22.3781 91.288 21.6928L91.2748 10.9557H90.3002C89.6138 10.9557 89.2717 10.5949 89.2717 9.87437V7.29707C89.2717 6.62057 89.6138 6.28287 90.3002 6.28287H91.2748L91.288 3.11707Z" fill="white"/>
<path d="M101.66 7.02097C101.66 6.87247 101.692 6.72947 101.759 6.59417C101.825 6.45777 101.905 6.35107 102.002 6.27187C102.23 6.12337 102.466 6.04857 102.712 6.04857H104.697C104.863 6.04857 104.995 6.07937 105.091 6.14097C105.188 6.20257 105.268 6.28067 105.334 6.37747C105.4 6.47427 105.456 6.58427 105.504 6.70637C105.553 6.82957 105.612 6.95167 105.682 7.07487C105.699 7.11007 105.734 7.19477 105.786 7.33117C105.839 7.46757 105.895 7.61607 105.958 7.77777C106.019 7.94057 106.078 8.09347 106.135 8.23757C106.192 8.38277 106.229 8.47627 106.247 8.52027C106.51 8.23097 106.762 7.92737 107.004 7.60727C107.245 7.28717 107.501 6.99127 107.772 6.71957C108.043 6.44787 108.346 6.22457 108.679 6.04857C109.012 5.87367 109.406 5.78567 109.863 5.78567C110.336 5.78567 110.759 5.82087 111.131 5.89017C111.504 5.96057 111.856 6.06287 112.189 6.19927C112.521 6.33567 112.852 6.50837 113.181 6.71847C113.51 6.92857 113.867 7.17387 114.253 7.45437C114.858 7.77887 114.971 8.26067 114.595 8.90087L113.399 10.9381C113.223 11.201 113.009 11.3638 112.756 11.4243C112.502 11.4859 112.225 11.4463 111.927 11.3055C111.55 10.937 111.167 10.6631 110.777 10.4838C110.386 10.3045 109.942 10.2143 109.442 10.2143C109.1 10.2143 108.8 10.2627 108.543 10.3595C108.284 10.4563 108.05 10.5916 107.84 10.7665C107.629 10.9425 107.432 11.1526 107.248 11.3979C107.063 11.6432 106.879 11.9149 106.696 12.213V21.7313C106.696 22.0646 106.615 22.3165 106.453 22.487C106.29 22.6575 106.021 22.7433 105.644 22.7433H102.686C102.003 22.7433 101.661 22.4067 101.661 21.7313V7.02097H101.66Z" fill="white"/>
<path d="M133 21.7522C133 21.904 132.974 22.047 132.92 22.1856C132.867 22.3231 132.778 22.432 132.653 22.5123C132.556 22.6102 132.44 22.6718 132.307 22.6993C132.174 22.7257 132.058 22.7389 131.961 22.7389H129.336C129.149 22.7389 128.998 22.7147 128.883 22.6663C128.767 22.6179 128.674 22.5486 128.602 22.4595C128.532 22.3704 128.471 22.2615 128.423 22.1328C128.373 22.0041 128.323 21.8644 128.27 21.7126L127.884 20.7138C127.644 20.9536 127.381 21.2099 127.097 21.4794C126.814 21.7511 126.5 22.0008 126.158 22.2329C125.817 22.4639 125.445 22.6564 125.046 22.8126C124.647 22.9677 124.22 23.0458 123.767 23.0458C122.958 23.0458 122.184 22.9435 121.442 22.7389C120.701 22.5354 120.008 22.2439 119.364 21.8666C118.721 21.4893 118.137 21.0361 117.613 20.5081C117.089 19.979 116.639 19.3916 116.261 18.7426C115.884 18.0936 115.593 17.3951 115.389 16.6449C115.184 15.8947 115.082 15.1104 115.082 14.2931C115.082 13.0589 115.309 11.9105 115.762 10.849C116.215 9.78747 116.832 8.86347 117.613 8.07807C118.394 7.29157 119.314 6.67447 120.371 6.22677C121.428 5.77797 122.56 5.55357 123.768 5.55357C124.319 5.55357 124.825 5.63607 125.287 5.79997C125.748 5.96387 126.168 6.17947 126.545 6.44567C126.922 6.71187 127.265 7.01437 127.57 7.35207C127.877 7.68977 128.15 8.03187 128.39 8.37727L128.91 6.76577C128.998 6.54357 129.072 6.36427 129.13 6.22677C129.188 6.08927 129.25 5.98697 129.317 5.91987C129.383 5.85387 129.466 5.80877 129.564 5.78677C129.66 5.76477 129.799 5.75377 129.976 5.75377H131.962C132.06 5.75377 132.175 5.76697 132.308 5.79337C132.441 5.81977 132.557 5.88247 132.655 5.97927C132.779 6.07717 132.868 6.18827 132.921 6.31257C132.974 6.43687 133.001 6.57877 133.001 6.73937V21.7522H133ZM119.878 14.292C119.878 14.8783 119.969 15.4272 120.151 15.9376C120.332 16.448 120.592 16.8902 120.93 17.262C121.266 17.6349 121.673 17.9308 122.149 18.1475C122.624 18.3653 123.149 18.4742 123.727 18.4742C124.322 18.4742 124.875 18.3653 125.386 18.1475C125.896 17.9297 126.341 17.6349 126.718 17.262C127.094 16.8891 127.39 16.448 127.603 15.9376C127.816 15.4272 127.922 14.8783 127.922 14.292C127.922 13.7233 127.816 13.1821 127.603 12.6673C127.389 12.1525 127.094 11.6993 126.718 11.3077C126.34 10.9172 125.896 10.6081 125.386 10.3815C124.874 10.1549 124.322 10.0416 123.727 10.0416C123.151 10.0416 122.624 10.1549 122.149 10.3815C121.673 10.6081 121.266 10.9172 120.93 11.3077C120.592 11.6993 120.332 12.1514 120.151 12.6673C119.969 13.1821 119.878 13.7244 119.878 14.292Z" fill="white"/>
<path d="M10.4698 24.2749C13.3056 24.2507 16.0556 23.0462 17.9355 21.2048C15.5485 18.8178 13.1615 16.4308 10.7745 14.0438C10.6865 14.1186 10.5798 14.1593 10.4698 14.1659V24.2749V24.2749Z" fill="#2980B9"/>
<path d="M9.8747 13.9129H9.8956L3.0162 7.58786L2.4255 7.04886C0.9251 8.85506 0.0176 11.3796 0 13.9074H9.8582C9.8604 13.9074 9.867 13.9096 9.8747 13.9129Z" fill="#E84C3C"/>
<path d="M7.029 16.9192C8.0091 15.9303 8.9881 14.9425 9.9726 13.958C9.9649 13.9602 9.9044 13.9272 9.8736 13.9129C9.8659 13.9096 9.8593 13.9074 9.8571 13.9074H0C0.0341 16.6365 1.1902 19.1995 2.9227 21.0519C3.1801 20.7945 3.4364 20.536 3.6938 20.2786C4.807 19.161 5.918 18.0401 7.029 16.9192Z" fill="#F39C12"/>
<path d="M10.439 14.1692C10.3125 14.1692 10.186 14.1241 10.0859 14.0328L10.0826 14.0306C10.0375 14.0064 9.9979 13.9811 9.9726 13.9591C8.9881 14.9436 8.008 15.9314 7.029 16.9203C5.918 18.0412 4.8081 19.161 3.6938 20.2786C3.4375 20.536 3.1812 20.7945 2.9227 21.0519C2.9216 21.053 2.9205 21.0541 2.9194 21.0552C4.8004 22.9879 7.5691 24.265 10.4698 24.3057V24.2749V14.1659C10.4599 14.167 10.4489 14.1692 10.439 14.1692Z" fill="#16A085"/>
<path d="M23.6473 6.4401C24.0099 4.16077 22.456 2.01909 20.1767 1.65651C17.8974 1.29393 15.7557 2.84776 15.3931 5.12709C15.0306 7.40641 16.5844 9.54809 18.8637 9.91067C21.143 10.2732 23.2847 8.71942 23.6473 6.4401Z" fill="#E84C3C"/>
<path d="M19.4909 10.7152C16.7926 10.7152 14.6058 8.52836 14.6058 5.83006C14.6058 5.25256 14.7114 4.70036 14.8951 4.18556C13.5652 3.57946 12.0901 3.23846 10.5336 3.23846C7.6494 3.23846 5.038 4.40006 3.135 6.27776L10.7932 13.2573C11.0077 13.452 11.022 13.7842 10.8273 13.9987C10.8119 14.0163 10.7932 14.0295 10.7756 14.0449C13.1725 16.4418 15.5694 18.8398 17.9674 21.2367C19.8319 19.3359 21.0683 16.6464 21.0683 13.7732C21.0683 12.6633 20.8923 11.5963 20.5733 10.5909C20.2246 10.6701 19.8627 10.7152 19.4909 10.7152Z" fill="white"/>
</svg>
