<svg width="40" height="40" viewBox="0 0 40 40" fill="none" xmlns="http://www.w3.org/2000/svg">
<ellipse cx="20" cy="20" rx="20" ry="20" fill="#34495E"/>
<path d="M0.00799561 20.022C0.00799561 8.98791 8.95999 0.0439606 20.004 0.0439606C31.047 0.0439606 40 8.98791 40 20.022C40 31.0561 31.047 40 20.004 40C8.95999 40 0.00799561 31.0551 0.00799561 20.022ZM5.84999 30.1609C9.01099 34.5579 14.172 37.4213 20.004 37.4213C25.836 37.4213 30.997 34.5569 34.158 30.1609C33.905 27.9868 32.33 26.1615 30.164 25.6199L27.554 24.9685C25.452 26.7719 22.804 27.755 20.004 27.755C17.204 27.755 14.556 26.7719 12.454 24.9685L9.84399 25.6199C7.67699 26.1615 6.10299 27.9868 5.84999 30.1609ZM10.973 16.1555C10.973 21.138 15.016 25.1783 20.004 25.1783C24.992 25.1783 29.035 21.139 29.035 16.1555C29.035 11.1719 24.992 7.13258 20.004 7.13258C15.016 7.13258 10.973 11.1719 10.973 16.1555Z" fill="white"/>
</svg>
